<svg width="16" height="17" fill="none" xmlns="http://www.w3.org/2000/svg"><path d="M15.327 14.128c0 .292-.057.563-.172.813-.104.26-.266.484-.484.672a1.8 1.8 0 01-.72.422c-.26.093-.53.125-.812.093a13.606 13.606 0 01-3.156-.719 13.19 13.19 0 01-2.875-1.421 14.04 14.04 0 01-2.344-1.86 13.052 13.052 0 01-1.86-2.344 13.975 13.975 0 01-1.437-2.906A13.857 13.857 0 01.75 3.706c-.021-.28.01-.552.093-.812.094-.271.235-.51.422-.719.188-.208.407-.37.657-.484.26-.115.53-.172.812-.172h2c.51.01.948.177 1.313.5.375.312.604.724.687 1.234.083.594.224 1.167.422 1.719.146.375.177.75.094 1.125-.084.375-.26.708-.532 1l-.484.469a10.72 10.72 0 001.36 1.703c.51.51 1.078.963 1.703 1.36l.468-.485a1.957 1.957 0 011-.531 1.924 1.924 0 011.11.078c.562.208 1.14.354 1.734.437.51.084.922.313 1.234.688.323.364.485.807.485 1.328v1.984zm-1.328-1.984a.707.707 0 00-.157-.469.673.673 0 00-.406-.234 9.662 9.662 0 01-2.031-.5.602.602 0 00-.36-.016.644.644 0 00-.328.156l-.859.86a.67.67 0 01-.797.11 11.535 11.535 0 01-4.25-4.25.67.67 0 01-.078-.423.722.722 0 01.188-.39l.843-.844a.593.593 0 00.172-.328.658.658 0 00-.015-.375 8.813 8.813 0 01-.516-2.016.607.607 0 00-.219-.406.685.685 0 00-.453-.156h-2a.639.639 0 00-.484.218.634.634 0 00-.172.485c.104.99.318 1.948.64 2.875a13.46 13.46 0 001.297 2.625c.49.77 1.052 1.474 1.688 2.11a12.825 12.825 0 002.125 1.687c.823.53 1.693.963 2.61 1.296.916.323 1.859.537 2.827.641a.627.627 0 00.516-.172.639.639 0 00.219-.484v-2zM9.905 4.847a.723.723 0 01-.406-.281.655.655 0 01-.094-.485.591.591 0 01.266-.422.672.672 0 01.484-.124c.812.166 1.5.53 2.062 1.093.563.563.933 1.25 1.11 2.063a.7.7 0 01-.031.36.605.605 0 01-.188.296.636.636 0 01-.312.156.718.718 0 01-.36-.031.615.615 0 01-.281-.203.709.709 0 01-.14-.313 2.685 2.685 0 00-2.11-2.109zm.047-2.656a.822.822 0 01-.313-.125.768.768 0 01-.218-.266.673.673 0 01-.063-.344.717.717 0 01.14-.328.629.629 0 01.266-.203.636.636 0 01.344-.062c1.573.198 2.896.833 3.969 1.906s1.713 2.396 1.922 3.969a.72.72 0 01-.157.5.61.61 0 01-.437.234.698.698 0 01-.5-.125.666.666 0 01-.234-.453c-.167-1.26-.678-2.318-1.532-3.172-.854-.865-1.916-1.375-3.187-1.531z" fill="#D2D2D2"/></svg>