<svg width="103" height="88" fill="none" xmlns="http://www.w3.org/2000/svg"><path opacity=".1" d="M21.671 87.715c-5.76 0-10.826-2.136-15.197-6.407C2.204 77.038.068 70.531.068 61.79c0-8.641 1.44-16.935 4.32-24.881 2.98-8.046 6.655-15.197 11.026-21.455 4.37-6.258 8.89-11.174 13.558-14.75l12.515 4.768c-4.569 5.264-8.84 11.77-12.813 19.517-3.874 7.748-5.91 15.347-6.109 22.796 5.563.497 10.132 2.483 13.708 5.96 3.675 3.476 5.512 8.045 5.512 13.707 0 6.06-1.986 10.976-5.96 14.75-3.973 3.675-8.69 5.513-14.154 5.513zm60.789 0c-5.761 0-10.827-2.136-15.197-6.407-4.271-4.27-6.407-10.777-6.407-19.518 0-8.641 1.44-16.935 4.321-24.881 2.98-8.046 6.655-15.197 11.025-21.455 4.37-6.258 8.89-11.174 13.559-14.75l12.515 4.768c-4.57 5.264-8.84 11.77-12.813 19.517-3.874 7.748-5.91 15.347-6.11 22.796 5.563.497 10.132 2.483 13.708 5.96 3.675 3.476 5.513 8.045 5.513 13.707 0 6.06-1.987 10.976-5.96 14.75-3.973 3.675-8.691 5.513-14.154 5.513z" fill="#fff"/></svg>